<svg width="18" height="18" viewBox="0 0 18 18" fill="none" xmlns="http://www.w3.org/2000/svg">
<path d="M17.502 9.85511C17.6815 9.6715 17.8202 9.45595 17.9099 9.20847C18.0568 8.76938 17.9997 8.25845 17.9099 7.97904C17.7468 7.52399 17.4041 7.14079 16.9554 6.93323L2.711 0.187349C1.7728 -0.259715 0.646952 0.131466 0.190087 1.04156C-0.0383459 1.51257 -0.0628209 2.05544 0.132979 2.53444L2.3602 7.97106L15.6093 8.25047C16.5393 8.26644 17.3796 8.92107 17.4939 9.82318C17.502 9.83915 17.502 9.84713 17.502 9.85511Z" fill="white"/>
<path d="M10.6491 12.1941C10.6491 12.1941 10.7797 11.5874 11.3834 11.4357C11.465 10.5895 11.8321 9.84706 12.4358 9.29621C12.5663 9.17646 12.705 9.08066 12.8519 8.98486L2.36028 9.2084L0.133064 14.653C-0.250377 15.603 0.222805 16.6808 1.19364 17.056C1.41392 17.1438 1.65051 17.1837 1.8871 17.1837C2.17264 17.1837 2.45818 17.1198 2.71109 17.0001L10.6491 13.24V12.1941Z" fill="white"/>
<path d="M17.812 12.5058H17.2654V11.8267C17.2246 11.1803 16.9391 10.5749 16.4659 10.1331C15.9927 9.69126 15.3727 9.4458 14.7282 9.4458C14.0837 9.4458 13.4636 9.69126 12.9904 10.1331C12.5173 10.5749 12.2317 11.1803 12.1909 11.8267V12.5058H11.6443C11.6199 12.5058 11.5954 12.5058 11.5791 12.514C11.5546 12.5222 11.5383 12.5303 11.522 12.5467C11.5056 12.5631 11.4893 12.5794 11.4812 12.604C11.473 12.6285 11.4648 12.6449 11.4648 12.6694V16.9322C11.473 17.1203 11.5546 17.2922 11.6851 17.4231C11.8238 17.554 12.0033 17.6194 12.1909 17.6113H17.2654C17.453 17.6194 17.6325 17.5458 17.7712 17.4231C17.9099 17.2922 17.9833 17.1203 17.9915 16.9322V12.6694C17.9915 12.6449 17.9833 12.6203 17.9752 12.604C17.967 12.5794 17.9507 12.5631 17.9344 12.5467C17.9181 12.5303 17.8936 12.5222 17.8773 12.514C17.861 12.5058 17.8365 12.5058 17.812 12.5058ZM15.2748 16.0649C15.2748 16.0894 15.2748 16.114 15.2666 16.1385C15.2585 16.1631 15.2421 16.1794 15.2258 16.1958C15.2095 16.2122 15.185 16.2285 15.1606 16.2367C15.1361 16.2449 15.1116 16.2531 15.0871 16.2531H14.361C14.3366 16.2531 14.3121 16.2449 14.2876 16.2367C14.2631 16.2285 14.2468 16.2122 14.2224 16.1958C14.206 16.1794 14.1897 16.1549 14.1816 16.1385C14.1734 16.114 14.1734 16.0894 14.1734 16.0649L14.2876 15.0994C14.1979 15.0422 14.1245 14.9603 14.0673 14.8622C14.0184 14.764 13.9858 14.6576 13.9858 14.5513C13.9939 14.3631 14.0755 14.1913 14.2142 14.0603C14.3529 13.9294 14.5242 13.864 14.7119 13.864C14.8995 13.864 15.079 13.9376 15.2095 14.0603C15.3482 14.1913 15.4216 14.3631 15.4379 14.5513C15.4379 14.6576 15.4135 14.764 15.3564 14.8622C15.3074 14.9603 15.234 15.0422 15.1442 15.0994L15.2748 16.0649ZM16.1803 12.5058H13.276V11.8267C13.3005 11.4585 13.4636 11.1149 13.7329 10.8613C14.0021 10.6076 14.361 10.4685 14.7282 10.4685C15.0953 10.4685 15.4543 10.6076 15.7235 10.8613C15.9927 11.1149 16.1559 11.4585 16.1803 11.8267V12.5058Z" fill="white"/>
</svg>
